<?xml version="1.0" encoding="utf-8"?>
<!-- Generator: Adobe Illustrator 24.1.2, SVG Export Plug-In . SVG Version: 6.00 Build 0)  -->
<svg version="1.1" id="Livello_1" xmlns="http://www.w3.org/2000/svg" xmlns:xlink="http://www.w3.org/1999/xlink" x="0px" y="0px"
	 viewBox="0 0 14.7 4.7" style="enable-background:new 0 0 14.7 4.7;" xml:space="preserve">
<style type="text/css">
	.st0{fill:#FFFFFF;}
	.st1{fill:#5634E8;}
</style>
<path class="st0" d="M5.5,0.7l-1.7,4H2.5l-1.7-4h1.4l1,2.3l1-2.3C4.2,0.7,5.5,0.7,5.5,0.7z"/>
<path class="st1" d="M6.5,1.5c0.2,0,0.3,0,0.5,0.1c0.1,0.1,0.3,0.2,0.4,0.3V1.6h1.1v3.1H7.3V3.2c0-0.2,0-0.3-0.1-0.5
	C7.1,2.6,7,2.6,6.9,2.6c-0.2,0-0.3,0.2-0.3,0.5v1.6H5.4V2.9c0-0.4,0.1-0.7,0.3-1C6,1.7,6.2,1.5,6.5,1.5z"/>
<path class="st0" d="M10.4,1.9c0.2,0.3,0.4,0.6,0.3,1v1.8H9.5V3.1c0-0.4-0.1-0.5-0.4-0.5c-0.1,0-0.2,0-0.3,0.1
	C8.7,2.9,8.6,3,8.6,3.2v1.5H7.4V1.6h1.2v0.3C8.7,1.8,8.8,1.7,9,1.6s0.3-0.1,0.5-0.1C9.9,1.5,10.2,1.7,10.4,1.9z"/>
<path class="st0" d="M11.7,1.1c-0.1-0.1-0.2-0.3-0.2-0.5s0.1-0.4,0.2-0.5C11.8,0.1,12,0,12.3,0c0.2,0,0.4,0.1,0.6,0.2
	C13,0.3,13,0.5,13,0.6c0,0.2,0,0.4-0.2,0.5s-0.4,0.2-0.6,0.2C12,1.3,11.8,1.3,11.7,1.1z M11.6,1.6h1.3v3.1h-1.3V1.6z"/>
<path class="st1" d="M13.4,4.5c-0.3-0.3-0.3-0.8,0-1.1c0.1-0.1,0.3-0.2,0.5-0.2s0.4,0.1,0.5,0.2c0.3,0.3,0.3,0.8,0,1.1
	c-0.1,0.1-0.3,0.2-0.5,0.2C13.8,4.8,13.6,4.7,13.4,4.5z"/>
</svg>
