<?xml version="1.0" encoding="utf-8"?>
<!-- Generator: Adobe Illustrator 24.1.2, SVG Export Plug-In . SVG Version: 6.00 Build 0)  -->
<svg version="1.1" id="Livello_1" xmlns="http://www.w3.org/2000/svg" xmlns:xlink="http://www.w3.org/1999/xlink" x="0px" y="0px"
	 viewBox="0 0 800 800" style="enable-background:new 0 0 800 800;" xml:space="preserve">
<style type="text/css">
	.st0{fill:#FFFFFF;}
	.st1{fill:#A78A6C;}
</style>
<path class="st0" d="M337.8,347.3l-13.3,36.5h26.9L337.8,347.3z"/>
<path class="st0" d="M444.8,367.4c2.7-1,4.7-2.7,6.2-4.8c1.5-2.2,2.3-4.8,2.3-7.7c0-3.6-1-6.6-3.1-8.8c-2.1-2.3-4.8-3.8-8-4.4
	c-2.3-0.5-7.1-0.7-14.3-0.7h-9.6v27.9h10.9C437,368.9,442.2,368.4,444.8,367.4L444.8,367.4z"/>
<path class="st1" d="M506.6,529.3H275.5c-6.5,0-11.8-5.3-11.8-11.8V287c0-4.3-3.5-7.8-7.8-7.8s-7.8,3.5-7.8,7.8v230.5
	c0,15.2,12.3,27.4,27.4,27.4h231.1c4.3,0,7.8-3.5,7.8-7.8S510.9,529.3,506.6,529.3z"/>
<path class="st1" d="M757.1,279.9c11.3,0,20.6-9.3,20.6-20.6c0-11.3-9.3-20.6-20.6-20.6h-71.8v-58.5c0-39.8-32.4-72.1-72.1-72.1
	h-28.6V38.7c0-11.3-9.3-20.6-20.6-20.6s-20.6,9.3-20.6,20.6v69.4h-47.9V38.7c0-11.3-9.3-20.6-20.6-20.6c-11.3,0-20.6,9.3-20.6,20.6
	v69.4h-47.9V38.7c0-11.3-9.3-20.6-20.6-20.6c-11.3,0-20.6,9.3-20.6,20.6v69.4h-47.9V38.7c0-11.3-9.3-20.6-20.6-20.6
	c-11.3,0-20.6,9.3-20.6,20.6v69.4h-88.4c-39.8,0-72.1,32.4-72.1,72.1v58.5H43.5c-11.3,0-20.6,9.3-20.6,20.6
	c0,11.3,9.3,20.6,20.6,20.6h71.8v47.9H43.5c-11.3,0-20.6,9.3-20.6,20.6s9.3,20.6,20.6,20.6h71.8V417H43.5
	c-11.3,0-20.6,9.3-20.6,20.6c0,11.3,9.3,20.6,20.6,20.6h71.8v47.9H43.5c-11.3,0-20.6,9.3-20.6,20.6s9.3,20.6,20.6,20.6h71.8v58.5
	c0,39.8,32.4,72.1,72.1,72.1h31.7v74.7c0,11.3,9.3,20.6,20.6,20.6s20.6-9.3,20.6-20.6V678h47.9v74.7c0,11.3,9.3,20.6,20.6,20.6
	s20.6-9.3,20.6-20.6V678h47.9v74.7c0,11.3,9.3,20.6,20.6,20.6c11.3,0,20.6-9.3,20.6-20.6V678h47.9v74.7c0,11.3,9.3,20.6,20.6,20.6
	c11.3,0,20.6-9.3,20.6-20.6V678h85.3c39.8,0,72.1-32.4,72.1-72.1v-58.5h71.8c11.3,0,20.6-9.3,20.6-20.6s-9.3-20.6-20.6-20.6h-71.8
	v-47.9h71.8c11.3,0,20.6-9.3,20.6-20.6c0-11.3-9.3-20.6-20.6-20.6h-71.8v-47.9h71.8c11.3,0,20.6-9.3,20.6-20.6s-9.3-20.6-20.6-20.6
	h-71.8v-47.9H757.1z M644,605.8c0,17-13.9,30.9-30.9,30.9H187.4c-17,0-30.9-13.9-30.9-30.9V180.2c0-17,13.9-30.9,30.9-30.9h425.7
	c17,0,30.9,13.9,30.9,30.9L644,605.8L644,605.8z"/>
<path class="st1" d="M316.7,400.9l10.5-40.3h0.9l10.3,40.3H316.7z M348.5,440.5h21.1l-29.8-99.4h-23.1l-29.8,99.4h19.6l6.3-24.3
	h29.5L348.5,440.5z"/>
<path class="st1" d="M382.1,341.1v99.4h19.6v-31.5h15.8c21.4,0,35-13.2,35-33.8c0-20.9-13.2-34-34.1-34H382.1z M401.7,357.2h11.8
	c12.8,0,19.2,5.9,19.2,17.8c0,12-6.4,17.8-19.2,17.8h-11.8V357.2z"/>
<path class="st1" d="M533,440.5v-16.8h-20.6v-65.8H533v-16.8h-60.7v16.8h20.6v65.8h-20.6v16.8H533z"/>
</svg>
