<?xml version="1.0" encoding="utf-8"?>
<!-- Generator: Adobe Illustrator 24.1.2, SVG Export Plug-In . SVG Version: 6.00 Build 0)  -->
<svg version="1.1" id="Livello_1" xmlns="http://www.w3.org/2000/svg" xmlns:xlink="http://www.w3.org/1999/xlink" x="0px" y="0px"
	 viewBox="0 0 800 800" style="enable-background:new 0 0 800 800;" xml:space="preserve">
<style type="text/css">
	.st0{fill:none;}
	.st1{fill-rule:evenodd;clip-rule:evenodd;fill:none;stroke:#A78A6C;stroke-width:24;stroke-miterlimit:10;}
</style>
<rect class="st0" width="800" height="800"/>
<path class="st1" d="M697.2,115.5h-598c-41.3,0-74.8,40.1-74.8,89.5v358.1c0,49.4,33.5,89.5,74.8,89.5h598
	c41.3,0,74.8-40.1,74.8-89.5V205C771.9,155.6,738.5,115.5,697.2,115.5z M296.9,509.4L286,461.5h-68.8l-10.8,47.9h-63.5l68.4-256.5
	h78.1l71.4,256.5H296.9z M533.8,368.9c-2.7,10.6-7.3,20.4-13.5,28.6c-7,8.7-15.6,15.4-25,19.7c-12,5.3-24.6,7.9-37.4,7.6h-16.4v84.6
	h-58.3V253.8H458c21.6-1.9,43.1,5.6,60.6,21c14.2,15.3,21.8,37.6,20.6,60.4C538.9,346.7,537.1,358.1,533.8,368.9z M630.3,509.4
	h-57.9V253.8h57.9V509.4z M265.5,363l9,41.6h-45.2l9-41.6c0-5.8,3-12.5,4.5-21c1.5-8.5,3.4-17,4.9-25.5c1.6-7.1,2.8-14.2,3.7-21.5
	c0,5.8,2.6,13,4.1,22.4l5.6,26L265.5,363z M474.4,318.3c4.2,5.1,6.3,12.1,6,19.2c0.2,6.6-1.2,13.2-4.1,18.8c-2.5,4.4-6,7.9-10.1,9.8
	c-4.4,2.2-9.1,3.3-13.8,3.1h-11.6v-59.5h15c6.4-0.3,12.6,2.4,17.2,7.6L474.4,318.3z"/>
</svg>
