<?xml version="1.0" encoding="utf-8"?>
<!-- Generator: Adobe Illustrator 24.1.2, SVG Export Plug-In . SVG Version: 6.00 Build 0)  -->
<svg version="1.1" id="Icons" xmlns="http://www.w3.org/2000/svg" xmlns:xlink="http://www.w3.org/1999/xlink" x="0px" y="0px"
	 viewBox="0 0 32 32" style="enable-background:new 0 0 32 32;" xml:space="preserve">
<style type="text/css">
	.st0{fill:#A78A6C;}
</style>
<path class="st0" d="M27,28.5H5c-2,0-3.5-1.5-3.5-3.5V7C1.5,5,3,3.5,5,3.5h22c2,0,3.5,1.5,3.5,3.5v18C30.5,27,29,28.5,27,28.5z
	 M5,4.5C3.6,4.5,2.5,5.6,2.5,7v18c0,1.4,1.1,2.5,2.5,2.5h22c1.4,0,2.5-1.1,2.5-2.5V7c0-1.4-1.1-2.5-2.5-2.5H5z M18,22.5h-4
	c-0.9,0-1.5-0.6-1.5-1.5s0.6-1.5,1.5-1.5h4c0.9,0,1.5,0.6,1.5,1.5S18.9,22.5,18,22.5z M14,20.5c-0.3,0-0.5,0.2-0.5,0.5
	s0.2,0.5,0.5,0.5h4c0.3,0,0.5-0.2,0.5-0.5s-0.2-0.5-0.5-0.5H14z M8,22.5c-0.4,0-0.7-0.1-1.1-0.4c-0.6-0.6-0.6-1.5,0-2.1L8.9,18
	l-1.9-1.9c-0.6-0.6-0.6-1.5,0-2.1c0.6-0.6,1.5-0.6,2.1,0l3,3c0.6,0.6,0.6,1.5,0,2.1h0l-3,3C8.7,22.4,8.4,22.5,8,22.5z M8,14.5
	c-0.1,0-0.2,0.1-0.3,0.2c-0.2,0.2-0.2,0.5,0,0.7l2.7,2.7l-2.7,2.7c-0.2,0.2-0.2,0.5,0,0.7c0.2,0.2,0.5,0.2,0.7,0l3-3
	c0.2-0.2,0.2-0.5,0-0.7l-3-3C8.2,14.6,8.1,14.5,8,14.5z M13,9.5c-0.1,0-0.4,0-0.6-0.1c-0.2-0.1-0.3-0.2-0.4-0.3l0,0l0.4-0.4
	l-0.4,0.4c-0.1-0.1-0.2-0.2-0.3-0.4c-0.1-0.2-0.1-0.5-0.1-0.6c0,0.4-0.1,0.7-0.4,1.1c-0.6,0.6-1.5,0.6-2.1,0C8.6,8.7,8.5,8.4,8.5,8
	c0-0.1,0-0.5,0.2-0.7c0-0.1,0.1-0.2,0.2-0.3c0.1-0.1,0.3-0.3,0.5-0.3c0.5-0.2,1.2-0.1,1.6,0.3c0.1,0.1,0.2,0.3,0.3,0.4
	c0.1,0.2,0.1,0.5,0.1,0.6c0-0.2,0-0.5,0.2-0.8c0-0.1,0.1-0.2,0.2-0.3c0.6-0.6,1.5-0.6,2.1,0c0.1,0.1,0.2,0.3,0.3,0.4
	c0.1,0.2,0.1,0.5,0.1,0.6c0,0.2,0,0.5-0.2,0.8c0,0.1-0.1,0.2-0.2,0.3C13.7,9.4,13.4,9.5,13,9.5z M12.7,8.4h0.1l0.1,0.1
	c0,0,0,0,0.1,0c0.1,0,0.2,0,0.3-0.2c0-0.1,0.1-0.2,0.2-0.3c0,0,0,0,0-0.1c0,0,0-0.1,0-0.1l-0.1-0.1l0-0.1c0,0,0,0,0,0
	c-0.2-0.2-0.5-0.2-0.7,0c0,0.1-0.1,0.2-0.2,0.3c0,0,0,0,0,0.1c0,0,0,0.1,0,0.1l0.1,0.1L12.7,8.4C12.6,8.3,12.6,8.3,12.7,8.4
	L12.7,8.4C12.7,8.4,12.7,8.4,12.7,8.4z M9.5,7.9c0,0,0,0.1,0,0.1c0,0.1,0,0.2,0.2,0.3c0.2,0.2,0.5,0.2,0.7,0
	c0.1-0.1,0.2-0.2,0.2-0.3c0,0,0-0.1,0-0.1l-0.1-0.1l0-0.1c0,0,0,0,0,0c-0.2-0.2-0.5-0.1-0.5-0.1L9.7,7.6c0,0,0,0-0.1,0.1
	C9.6,7.7,9.6,7.8,9.5,7.9z M7,9.5c-0.4,0-0.7-0.1-1.1-0.4C5.6,8.7,5.5,8.4,5.5,8s0.1-0.7,0.4-1.1l0.3-0.2c0,0,0.1,0,0.1,0
	c0.1-0.1,0.2-0.2,0.5-0.2h0.4c0.2,0,0.3,0,0.5,0.2c0,0,0.1,0,0.1,0h0.1l0.2,0.2c0.1,0.1,0.3,0.3,0.3,0.4C8.5,7.6,8.5,7.9,8.5,8
	s0,0.4-0.1,0.6C8.3,8.8,8.2,8.9,8.1,9.1C7.7,9.4,7.4,9.5,7,9.5z M6.7,7.6L6.7,7.6C6.5,7.8,6.5,7.9,6.5,8s0,0.2,0.2,0.3
	c0.2,0.2,0.5,0.2,0.7,0c0,0,0,0,0.1-0.1V8.2l0.1-0.1c0,0,0,0,0-0.1c0,0,0-0.1,0-0.1L7.3,7.7l0-0.1c0,0,0,0,0,0l0,0c0,0,0,0-0.1,0
	H7.2L7.1,7.5L6.8,7.6C6.8,7.6,6.7,7.6,6.7,7.6z M6.7,7.6L6.7,7.6C6.7,7.6,6.8,7.6,6.7,7.6L6.7,7.6z"/>
</svg>
