<?xml version="1.0" encoding="utf-8"?>
<!-- Generator: Adobe Illustrator 24.1.2, SVG Export Plug-In . SVG Version: 6.00 Build 0)  -->
<svg version="1.1" id="Livello_1" xmlns="http://www.w3.org/2000/svg" xmlns:xlink="http://www.w3.org/1999/xlink" x="0px" y="0px"
	 viewBox="0 0 800 800" style="enable-background:new 0 0 800 800;" xml:space="preserve">
<style type="text/css">
	.st0{fill:none;stroke:#A78A6C;stroke-width:39;stroke-linecap:round;stroke-linejoin:round;stroke-miterlimit:133.3333;}
</style>
<path class="st0" d="M400,633.3l-66.7,100l-100-33.3l-16.7-116.7L100,566.7l-33.3-100l100-66.7l-100-66.7l33.3-100l116.7-16.7
	L233.3,100l100-33.3l66.7,100l66.7-100l100,33.3l16.7,116.7L700,233.3l33.3,100l-100,66.7l100,66.7l-33.3,100l-116.7,16.7L566.7,700
	l-100,33.3L400,633.3z M400,533.3c73.6,0,133.3-59.7,133.3-133.3S473.6,266.7,400,266.7S266.7,326.4,266.7,400
	S326.4,533.3,400,533.3z"/>
</svg>
