<?xml version="1.0" encoding="utf-8"?>
<!-- Generator: Adobe Illustrator 24.1.2, SVG Export Plug-In . SVG Version: 6.00 Build 0)  -->
<svg version="1.1" id="Capa_1" xmlns="http://www.w3.org/2000/svg" xmlns:xlink="http://www.w3.org/1999/xlink" x="0px" y="0px"
	 viewBox="0 0 800 800" style="enable-background:new 0 0 800 800;" xml:space="preserve">
<style type="text/css">
	.st0{fill:#A78A6C;}
</style>
<g>
	<path class="st0" d="M614.2,667.7H527c-3.1,0-5.7-2.6-5.7-5.7v-21.2c0-3.1-2.6-5.7-5.7-5.7h-122c-3.1,0-5.7,2.6-5.7,5.7v21.2
		c0,3.1-2.6,5.7-5.7,5.7h-65.6c-3.1,0-5.7,2.6-5.7,5.7v24.6c0,3.1,2.6,5.7,5.7,5.7h297.7c3.1,0,5.7-2.6,5.7-5.7v-24.6
		C619.9,670.2,617.4,667.7,614.2,667.7z"/>
	<g>
		<path class="st0" d="M760.7,93.6H138.5c-21.6,0-39.3,17.6-39.3,39.3c0,0,0,74.9,0,102.4c0,13.5-1,15.5,8.1,15.5
			c4.8,0,10.2,0,15.6,0c7.6,0,6.1-1.9,6.1-15.7c0-27.5,0-102.2,0-102.2c0-5.2,4.4-9.5,9.5-9.5h622.3c5.2,0,9.5,4.4,9.5,9.5v383.4
			H326.6c0,0-15.6,0-15.6,20.2c0,12,0,36,0,48c0,20.2,16.1,20.2,16.1,20.2h433.6c21.6,0,39.3-17.6,39.3-39.3V132.8
			C800,111.2,782.4,93.6,760.7,93.6z M449.6,570.6c-9.8,0-17.7-7.9-17.7-17.7c0-9.8,7.9-17.7,17.7-17.7c9.8,0,17.7,7.9,17.7,17.7
			C467.3,562.7,459.4,570.6,449.6,570.6z"/>
		<path class="st0" d="M250.4,285.8H25.3c-14,0-25.3,11.4-25.3,25.3v370c0,14,11.4,25.3,25.3,25.3h225.1c14,0,25.3-11.4,25.3-25.3
			v-370C275.8,297.1,264.4,285.8,250.4,285.8z M110.1,311.6h55.5c2.6,0,4.8,2.1,4.8,4.8c0,2.7-2.2,4.8-4.8,4.8h-55.5
			c-2.7,0-4.8-2.1-4.8-4.8C105.3,313.8,107.5,311.6,110.1,311.6z M137.6,688.6c-7.2,0-13.1-5.9-13.1-13.1s5.9-13.1,13.1-13.1
			s13.1,5.9,13.1,13.1S144.8,688.6,137.6,688.6z M254,650.1c0,3.4-2.7,6.1-6,6.1H27.8c-3.3,0-6-2.8-6-6.1V342.7c0-3.4,2.7-6.1,6-6.1
			H248c3.3,0,6,2.8,6,6.1L254,650.1L254,650.1z"/>
	</g>
</g>
</svg>
