<?xml version="1.0" encoding="utf-8"?>
<!-- Generator: Adobe Illustrator 24.1.2, SVG Export Plug-In . SVG Version: 6.00 Build 0)  -->
<svg version="1.1" id="Capa_1" xmlns="http://www.w3.org/2000/svg" xmlns:xlink="http://www.w3.org/1999/xlink" x="0px" y="0px"
	 viewBox="0 0 800 800" style="enable-background:new 0 0 800 800;" xml:space="preserve">
<style type="text/css">
	.st0{fill:#A78A6C;}
</style>
<g>
	<g>
		<path class="st0" d="M634.3,123.8L445.9,21C418.8,6.2,376.4,6.2,349.3,21L89.8,162.5c-27.4,14.9-48.9,51.2-48.9,82.5v309.9
			c0,31.3,21.5,67.5,48.9,82.5L349.3,779c13.5,7.4,30.9,11.1,48.2,11.1c17.4,0,34.7-3.7,48.2-11.1l259.5-141.6
			c27.4-14.9,48.9-51.1,48.9-82.4l0.3-308.7C755,200.2,696.6,153.9,634.3,123.8z M723.2,247.9V555c0,19.9-15.3,45.7-32.7,55.2
			L430.9,751.8c-17.8,9.7-49,9.7-66.8,0L104.7,610.2c-17.4-9.5-32.7-35.3-32.7-55.3V245c0-19.9,15.3-45.8,32.7-55.3L364.2,48.2
			c17.8-9.7,49-9.7,66.9,0.1l256.7,140.7c2.6,1.4,5,3.1,7.2,5.2C709.1,207.3,723.2,234.3,723.2,247.9z"/>
		<path class="st0" d="M397.6,436.8c0,25.8-25.4,48.5-54.3,48.5S289,462.6,289,436.8V291.5h-77.5v145.4c0,69.5,59.1,126,131.8,126
			s131.8-56.5,131.8-126V291.5h-77.5V436.8z M428.6,436.8V322.5h15.5v114.3c0,52.4-45.2,95-100.8,95s-100.8-42.6-100.8-95V322.5H258
			v114.3c0,43.1,39.1,79.5,85.3,79.5S428.6,479.9,428.6,436.8z"/>
		<path class="st0" d="M506.1,555.1h77.5V291.5h-77.5V555.1z M537.1,322.5h15.5v201.6h-15.5V322.5z"/>
	</g>
</g>
</svg>
